<svg xmlns="http://www.w3.org/2000/svg" viewBox="-40 -40 2318 438" width="2318" height="438"><path d="M5.96046e-07 358V297.5L268.5 66.5H11.5V1.49997H384.5V62L115.5 293H383.5V358H5.96046e-07ZM434.551 358V0.499983H826.551V65.5H514.551V144.5H797.551V209.5H514.551V293H826.551V358H434.551ZM881.328 358V0.499983H962.328L1215.33 257.5V0.499983H1295.33V358H1214.33L961.328 100.5V358H881.328ZM1365.21 358V0.499983H1757.21V65.5H1445.21V144.5H1728.21V209.5H1445.21V293H1757.21V358H1365.21ZM1781.99 358L1915.99 179.5L1781.99 0.499983H1879.49L1986.99 147H2032.99L2140.49 0.499983H2237.99L2103.99 179.5L2237.99 358H2139.99L2032.99 212H1986.99L1879.99 358H1781.99Z" fill="#090909"/></svg>